<svg id="Layer_1" data-name="Layer 1" xmlns="http://www.w3.org/2000/svg" viewBox="0 0 80 38"><defs><style>.cls-1{fill:#303030;}.cls-2{fill:#5a5e64;}</style></defs><title>btn_menu_m-g</title><rect class="cls-1" width="80" height="38" rx="3" ry="3"/><rect class="cls-2" x="39.5" y="12" width="1" height="14"/><path class="cls-2" d="M26.4,29H13.54A3.55,3.55,0,0,1,10,25.46V14.18a3.55,3.55,0,0,1,3.54-3.54H26.4a3.55,3.55,0,0,1,3.54,3.54V25.46A3.55,3.55,0,0,1,26.4,29ZM13.54,11.6A2.58,2.58,0,0,0,11,14.18V25.46A2.58,2.58,0,0,0,13.54,28H26.4A2.58,2.58,0,0,0,29,25.46V14.18A2.58,2.58,0,0,0,26.4,11.6H13.54Z"/><rect class="cls-2" x="15.05" y="9" width="1.45" height="4.24" rx="0.71" ry="0.71"/><rect class="cls-2" x="23.55" y="9" width="1.45" height="4.24" rx="0.71" ry="0.71"/><rect class="cls-2" x="23.19" y="15.89" width="1.68" height="1.68"/><rect class="cls-2" x="23.25" y="19.34" width="1.68" height="1.68"/><rect class="cls-2" x="23.22" y="22.78" width="1.68" height="1.68"/><rect class="cls-2" x="19.18" y="19.34" width="1.68" height="1.68"/><rect class="cls-2" x="19.15" y="22.78" width="1.68" height="1.68"/><rect class="cls-2" x="19.12" y="15.89" width="1.68" height="1.68"/><rect class="cls-2" x="15.12" y="15.89" width="1.68" height="1.68"/><rect class="cls-2" x="15.18" y="19.34" width="1.68" height="1.68"/><rect class="cls-2" x="15.18" y="22.78" width="1.68" height="1.68"/><path class="cls-2" d="M50.67,18.12q-1.5,0-2.81,0l-0.12-.74h1.65l1.77,0q0.9,0,1.81-.08t1.78-.16l0.06,0.65Q54,17.89,53.23,18l-1.58.11v1.66h-1V18.12Zm0.55-1.33a5,5,0,0,1-1.08-.11,2.76,2.76,0,0,1-.83-0.32,1.64,1.64,0,0,1-.54-0.5,1.2,1.2,0,0,1-.19-0.67,1.26,1.26,0,0,1,.19-0.68A1.55,1.55,0,0,1,49.3,14a3,3,0,0,1,.83-0.32,5.19,5.19,0,0,1,2.17,0,3,3,0,0,1,.83.32,1.55,1.55,0,0,1,.54.51,1.25,1.25,0,0,1,.19.68,1.19,1.19,0,0,1-.19.67,1.64,1.64,0,0,1-.54.5,2.76,2.76,0,0,1-.83.32A5,5,0,0,1,51.22,16.79Zm5.73,6.49V24H49.39V21.66h6.24V20.8H49.36V20.09h7.22v2.24H50.36v0.95h6.59Zm-5.73-9a2.69,2.69,0,0,0-1.26.25,0.76,0.76,0,0,0-.47.68,0.75,0.75,0,0,0,.47.67,3.3,3.3,0,0,0,2.53,0A0.75,0.75,0,0,0,53,15.19a0.76,0.76,0,0,0-.47-0.68A2.68,2.68,0,0,0,51.22,14.26Zm4.39,4.22V13.37h1v6.32h-1V19.13H53.47V18.48H55.6Z"/><path class="cls-2" d="M64.29,14.2a5.26,5.26,0,0,1-.35,1.94,5.36,5.36,0,0,1-1,1.63,7.06,7.06,0,0,1-1.59,1.3,9.34,9.34,0,0,1-2.09.92l-0.4-.78a9.48,9.48,0,0,0,1.72-.73,6.47,6.47,0,0,0,1.34-1,4.65,4.65,0,0,0,.91-1.18A3.56,3.56,0,0,0,63.24,15h-4V14.2h5Zm-2.84,8.88h6.19v0.8H60.46V20.43h1v2.65Zm7.32-6.44v0.8h-1.6v3.78h-1V13.37h1v3.26h1.6Z"/></svg>