<svg id="Layer_3" data-name="Layer 3" xmlns="http://www.w3.org/2000/svg" viewBox="0 0 80 38"><defs><style>.cls-1{fill:#303030;}.cls-2{fill:#5a5e64;}</style></defs><title>btn_menu_w-g</title><rect class="cls-1" width="80" height="38" rx="3" ry="3"/><rect class="cls-2" x="39.5" y="12" width="1" height="14"/><rect class="cls-2" x="10" y="18.15" width="1.61" height="1.61"/><rect class="cls-2" x="12.65" y="24.76" width="1.61" height="1.61"/><rect class="cls-2" x="19.53" y="9.34" width="0.93" height="0.93"/><path class="cls-2" d="M22.83,15.32v1l-3.5,7.33H17.77v0l3.13-6.31,0.21-.36a2.55,2.55,0,0,1,.23-0.32H17.19v-1.3h5.64Z"/><rect class="cls-2" x="28.73" y="18.37" width="0.93" height="0.93"/><rect class="cls-2" x="26.11" y="24.82" width="0.93" height="0.93"/><rect class="cls-2" x="12.99" y="25.1" width="0.93" height="0.93"/><rect class="cls-2" x="19.54" y="27.73" width="0.93" height="0.93"/><rect class="cls-2" x="26.11" y="12.16" width="0.93" height="0.93"/><rect class="cls-2" x="19.19" y="27.39" width="1.61" height="1.61"/><rect class="cls-2" x="25.77" y="24.48" width="1.61" height="1.61"/><path class="cls-2" d="M30,19.65H28.39V18H30v1.6h0Z"/><rect class="cls-2" x="25.77" y="11.82" width="1.61" height="1.61"/><rect class="cls-2" x="19.19" y="9" width="1.61" height="1.61"/><path class="cls-2" d="M57.52,20.29h-4.4v3.83h-1V20.29H47.79v-0.8h9.72v0.8Zm-9.16-2.48a6.26,6.26,0,0,0,1.37-.38,5.42,5.42,0,0,0,1.2-.66,3.43,3.43,0,0,0,.85-0.88,1.83,1.83,0,0,0,.32-1V14.82H48.7V14h7.86v0.79H53.19v0.06a1.83,1.83,0,0,0,.32,1,3.43,3.43,0,0,0,.85.88,5.35,5.35,0,0,0,1.21.66,6.34,6.34,0,0,0,1.39.38l-0.38.78a7.27,7.27,0,0,1-1.22-.32,6,6,0,0,1-1.12-.53A5.17,5.17,0,0,1,53.3,17a3.31,3.31,0,0,1-.65-0.88A3.54,3.54,0,0,1,52,17a5.27,5.27,0,0,1-.92.72,5.82,5.82,0,0,1-1.11.53,7.3,7.3,0,0,1-1.22.32Z"/><path class="cls-2" d="M64.29,14.2a5.26,5.26,0,0,1-.35,1.94,5.36,5.36,0,0,1-1,1.63,7.06,7.06,0,0,1-1.59,1.3,9.34,9.34,0,0,1-2.09.92l-0.4-.78a9.48,9.48,0,0,0,1.72-.73,6.47,6.47,0,0,0,1.34-1,4.65,4.65,0,0,0,.91-1.18A3.56,3.56,0,0,0,63.24,15h-4V14.2h5Zm-2.84,8.88h6.19v0.8H60.46V20.43h1v2.65Zm7.32-6.44v0.8h-1.6v3.78h-1V13.37h1v3.26h1.6Z"/></svg>