<svg xmlns="http://www.w3.org/2000/svg" viewBox="0 0 21.21 23.24"><defs><style>.cls-1{fill:#418cff;}</style></defs><title>btn_lem-delete</title><g id="Layer_2" data-name="Layer 2"><g id="깨부심"><path class="cls-1" d="M20.09,6.24h-19A1.13,1.13,0,0,1,1.13,4h19a1.13,1.13,0,1,1,0,2.26Z"/><path class="cls-1" d="M9,23.24c-1.8,0-3.38,0-4,0a3,3,0,0,1-2.21-.93,3,3,0,0,1-.75-2v-15a1.13,1.13,0,1,1,2.26,0v15c0,.65.56.67.8.68,1.75.07,10.29,0,11.71,0a.43.43,0,0,0,.21-.31c.1-1.29,0-11.23,0-14.95a1.13,1.13,0,0,1,1.12-1.14h0a1.13,1.13,0,0,1,1.13,1.12c0,.55.12,13.49,0,15.14A2.7,2.7,0,0,1,17.73,23a1.83,1.83,0,0,1-.88.23C15.8,23.22,12.06,23.24,9,23.24Z"/><path class="cls-1" d="M13.09,16.87A1.13,1.13,0,0,1,12,15.74V10.89a1.13,1.13,0,1,1,2.26,0v4.85A1.13,1.13,0,0,1,13.09,16.87Z"/><path class="cls-1" d="M8.12,16.87A1.13,1.13,0,0,1,7,15.74V10.89a1.13,1.13,0,1,1,2.26,0v4.85A1.13,1.13,0,0,1,8.12,16.87Z"/><path class="cls-1" d="M14.25,5.92a1.13,1.13,0,0,1-1.13-1.11,2.48,2.48,0,0,0-2.6-2.56c-2.13.07-2.41,2.37-2.43,2.63a1.13,1.13,0,0,1-2.25-.19A4.92,4.92,0,0,1,10.48,0h0a4.74,4.74,0,0,1,4.89,4.78,1.13,1.13,0,0,1-1.11,1.15Z"/></g></g></svg>