<svg id="Layer_2" data-name="Layer 2" xmlns="http://www.w3.org/2000/svg" viewBox="0 0 21.09 23.74"><defs><style>.cls-1{fill:#418cff;}</style></defs><title>btn_time</title><path class="cls-1" d="M10.64,23.87A10.19,10.19,0,1,1,20.83,13.68,10.2,10.2,0,0,1,10.64,23.87Zm0-18.42a8.23,8.23,0,1,0,8.23,8.23A8.24,8.24,0,0,0,10.64,5.45Z" transform="translate(-0.45 -0.13)"/><path class="cls-1" d="M16,15.5h-5.2a1,1,0,0,1-1-1V9.14a1,1,0,0,1,2,0v4.4H16A1,1,0,0,1,16,15.5Z" transform="translate(-0.45 -0.13)"/><rect class="cls-1" x="6.47" width="7.44" height="2.73" rx="0.55" ry="0.55"/><rect class="cls-1" x="17.3" y="4.34" width="4.34" height="2.16" rx="0.55" ry="0.55" transform="translate(9.08 -12.31) rotate(45)"/><rect class="cls-1" x="9.02" y="0.59" width="2.33" height="4.04"/><rect class="cls-1" x="16.71" y="5.74" width="3.2" height="1.55" transform="translate(0.07 14.21) rotate(-43.34)"/></svg>