<svg id="Layer_1" data-name="Layer 1" xmlns="http://www.w3.org/2000/svg" viewBox="0 0 21.91 24"><defs><style>.cls-1{fill:#418cff;}</style></defs><title>btn_delete</title><path class="cls-1" d="M20.79,6.45H1.21a1.17,1.17,0,0,1,0-2.33H20.79A1.17,1.17,0,1,1,20.79,6.45Z" transform="translate(-0.05)"/><path class="cls-1" d="M9.32,24c-1.86,0-3.49,0-4.18,0a3.14,3.14,0,0,1-2.28-1,3.12,3.12,0,0,1-.78-2.12V5.4a1.17,1.17,0,0,1,2.33,0V20.94a0.7,0.7,0,0,0,.82.7c1.8,0.07,10.63,0,12.1,0a0.44,0.44,0,0,0,.21-0.32c0.1-1.33,0-11.6,0-15.44A1.17,1.17,0,0,1,18.69,4.7h0a1.17,1.17,0,0,1,1.17,1.15c0,0.57.13,13.93,0,15.64a2.79,2.79,0,0,1-1.5,2.24,1.89,1.89,0,0,1-.9.23C16.36,24,12.5,24,9.32,24Z" transform="translate(-0.05)"/><path class="cls-1" d="M13.56,17.42a1.17,1.17,0,0,1-1.17-1.17v-5a1.17,1.17,0,0,1,2.33,0v5A1.17,1.17,0,0,1,13.56,17.42Z" transform="translate(-0.05)"/><path class="cls-1" d="M8.44,17.42a1.17,1.17,0,0,1-1.17-1.17v-5a1.17,1.17,0,1,1,2.33,0v5A1.17,1.17,0,0,1,8.44,17.42Z" transform="translate(-0.05)"/><path class="cls-1" d="M14.76,6.12A1.17,1.17,0,0,1,13.59,5a2.57,2.57,0,0,0-2.68-2.64c-2.2.08-2.48,2.45-2.51,2.72a1.17,1.17,0,0,1-2.32-.19A5.08,5.08,0,0,1,10.87,0h0a4.89,4.89,0,0,1,5,4.93,1.17,1.17,0,0,1-1.15,1.18h0Z" transform="translate(-0.05)"/></svg>