<svg xmlns="http://www.w3.org/2000/svg" viewBox="0 0 21.09 23.74"><defs><style>.cls-1{fill:#418cff;}</style></defs><title>btn_lem_time</title><g id="Layer_2" data-name="Layer 2"><g id="깨부심"><path class="cls-1" d="M10.19,23.74A10.19,10.19,0,1,1,20.38,13.55,10.2,10.2,0,0,1,10.19,23.74Zm0-18.42a8.23,8.23,0,1,0,8.23,8.23A8.24,8.24,0,0,0,10.19,5.32Z"/><path class="cls-1" d="M15.5,15.37H10.3a1,1,0,0,1-1-1V9a1,1,0,1,1,2,0v4.4H15.5a1,1,0,0,1,0,2Z"/><rect class="cls-1" x="6.47" width="7.44" height="2.73" rx="0.55" ry="0.55"/><rect class="cls-1" x="16.85" y="4.21" width="4.34" height="2.16" rx="0.55" ry="0.55" transform="translate(9.31 -11.9) rotate(45)"/><rect class="cls-1" x="9.02" y="0.59" width="2.33" height="4.04"/><rect class="cls-1" x="16.25" y="5.61" width="3.2" height="1.55" transform="translate(0.49 14) rotate(-43.34)"/></g></g></svg>