<svg id="Layer_1" data-name="Layer 1" xmlns="http://www.w3.org/2000/svg" viewBox="0 0 94.1 38"><defs><style>.cls-1{fill:#418cff;}</style></defs><title>btn_mypage</title><path class="cls-1" d="M-75.92,1252.64v36h-91.6v-36h91.6m1.25-1h-94.1v38h94.1v-38h0Z" transform="translate(168.76 -1251.64)"/><path class="cls-1" d="M-144.28,1275.73a0.3,0.3,0,0,1-.35.34h-0.92a0.3,0.3,0,0,1-.34-0.34v-11.87a10.19,10.19,0,0,1-.46,1.43l-3.33,8a0.46,0.46,0,0,1-.46.34H-151a0.44,0.44,0,0,1-.44-0.34l-3.47-8.26a10.39,10.39,0,0,1-.39-1.2v11.84a0.29,0.29,0,0,1-.32.34h-0.87a0.3,0.3,0,0,1-.35-0.34v-14.95a0.3,0.3,0,0,1,.35-0.35h0.87a0.29,0.29,0,0,1,.3.18l4.35,10.16a11.22,11.22,0,0,1,.41,1.17c0-.07.25-0.71,0.44-1.15l4.25-10.19a0.29,0.29,0,0,1,.32-0.18h0.92a0.3,0.3,0,0,1,.35.35v14.95Z" transform="translate(168.76 -1251.64)"/><path class="cls-1" d="M-137.56,1272.7a12.37,12.37,0,0,1,.32,1.38c0-.09.21-0.85,0.37-1.33l2.62-7.68a0.4,0.4,0,0,1,.39-0.34H-133c0.25,0,.37.14,0.3,0.34l-5.27,15.43a0.42,0.42,0,0,1-.39.34h-0.71a0.25,0.25,0,0,1-.28-0.34l1.38-4.32-3.84-11.11a0.26,0.26,0,0,1,.3-0.34h0.94a0.39,0.39,0,0,1,.39.34Z" transform="translate(168.76 -1251.64)"/><path class="cls-1" d="M-128.94,1265.06l0,0.87a6.1,6.1,0,0,1,3.93-1.4c2.18,0,3.17,1.2,3.17,2.94v5.84c0,1.75-1,2.94-3.17,2.94a6.36,6.36,0,0,1-3.91-1.33v5.57a0.27,0.27,0,0,1-.32.32h-0.92a0.28,0.28,0,0,1-.35-0.32v-15.43a0.3,0.3,0,0,1,.35-0.34h0.83A0.31,0.31,0,0,1-128.94,1265.06Zm5.56,2.64c0-.94-0.53-1.72-2-1.72a5.62,5.62,0,0,0-3.47,1.31v6.23a5.77,5.77,0,0,0,3.47,1.29c1.49,0,2-.78,2-1.72v-5.38Z" transform="translate(168.76 -1251.64)"/><path class="cls-1" d="M-118.56,1267.45c0-1.72,1-2.92,4.14-2.92s4.14,1.2,4.14,2.92v8.28a0.29,0.29,0,0,1-.32.34h-0.83a0.31,0.31,0,0,1-.35-0.34l0-.83a6.06,6.06,0,0,1-3.79,1.36c-2.14,0-3.17-1.22-3.17-2.71v-1.15a2.66,2.66,0,0,1,3-2.71h4v-2.07c0-1-.55-1.77-2.6-1.77s-2.62.69-2.62,1.72v0.28a0.3,0.3,0,0,1-.35.37h-0.83a0.3,0.3,0,0,1-.32-0.37v-0.39Zm6.71,6.19v-2.69h-3.66a1.51,1.51,0,0,0-1.75,1.66v0.74c0,1,.62,1.59,2,1.59A5.58,5.58,0,0,0-111.85,1273.64Z" transform="translate(168.76 -1251.64)"/><path class="cls-1" d="M-107,1273.32v-5.84c0-1.75,1-2.94,3.2-2.94a6.13,6.13,0,0,1,3.91,1.4l0-.87a0.3,0.3,0,0,1,.34-0.34h0.83a0.3,0.3,0,0,1,.35.34v12.79c0,1.77-1.15,3-4.3,3h-3.13a0.29,0.29,0,0,1-.34-0.32v-0.69a0.29,0.29,0,0,1,.34-0.32h3.13c2,0,2.71-.71,2.71-1.77v-2.78a6.4,6.4,0,0,1-3.89,1.33C-106.05,1276.26-107,1275.07-107,1273.32Zm1.59-.23c0,0.94.55,1.72,2,1.72a5.84,5.84,0,0,0,3.47-1.29v-6.23a5.68,5.68,0,0,0-3.47-1.31c-1.47,0-2,.78-2,1.72v5.38Z" transform="translate(168.76 -1251.64)"/><path class="cls-1" d="M-86.59,1270.33a0.28,0.28,0,0,1-.32.32h-6.51v2.55c0,1.06.55,1.77,2.67,1.77s2.67-.71,2.67-1.77v-0.39a0.27,0.27,0,0,1,.32-0.32h0.83a0.29,0.29,0,0,1,.35.32v0.48c0,1.77-1,3-4.21,3s-4.19-1.2-4.19-3v-5.79c0-1.77,1.06-3,4.23-3s4.16,1.2,4.16,3v2.83Zm-6.83-.9h5.33v-1.84c0-1-.64-1.77-2.67-1.77s-2.67.74-2.67,1.77v1.84Z" transform="translate(168.76 -1251.64)"/></svg>