<svg id="Layer_1" data-name="Layer 1" xmlns="http://www.w3.org/2000/svg" viewBox="0 0 80 38"><defs><style>.cls-1{fill:#303030;}.cls-2{fill:#5a5e64;}</style></defs><title>btn_menu_g</title><rect class="cls-1" width="80" height="38" rx="3" ry="3"/><rect class="cls-2" x="39.5" y="12" width="1" height="14"/><path class="cls-2" d="M26.4,29H13.54A3.55,3.55,0,0,1,10,25.46V14.18a3.55,3.55,0,0,1,3.54-3.54H26.4a3.55,3.55,0,0,1,3.54,3.54V25.46A3.55,3.55,0,0,1,26.4,29ZM13.54,11.6A2.58,2.58,0,0,0,11,14.18V25.46A2.58,2.58,0,0,0,13.54,28H26.4A2.58,2.58,0,0,0,29,25.46V14.18A2.58,2.58,0,0,0,26.4,11.6H13.54Z"/><rect class="cls-2" x="15.05" y="9" width="1.45" height="4.24" rx="0.71" ry="0.71"/><rect class="cls-2" x="23.55" y="9" width="1.45" height="4.24" rx="0.71" ry="0.71"/><rect class="cls-2" x="23.19" y="15.89" width="1.68" height="1.68"/><rect class="cls-2" x="23.25" y="19.34" width="1.68" height="1.68"/><rect class="cls-2" x="23.22" y="22.78" width="1.68" height="1.68"/><rect class="cls-2" x="19.18" y="19.34" width="1.68" height="1.68"/><rect class="cls-2" x="19.15" y="22.78" width="1.68" height="1.68"/><rect class="cls-2" x="19.12" y="15.89" width="1.68" height="1.68"/><rect class="cls-2" x="15.12" y="15.89" width="1.68" height="1.68"/><rect class="cls-2" x="15.18" y="19.34" width="1.68" height="1.68"/><rect class="cls-2" x="15.18" y="22.78" width="1.68" height="1.68"/></svg>