<svg id="Layer_1" data-name="Layer 1" xmlns="http://www.w3.org/2000/svg" viewBox="0 0 71.62 59.19"><defs><style>.cls-1{fill:#b1b1b1;}.cls-2{fill:#fcfdff;}</style></defs><title>emptystate_photo</title><rect class="cls-1" x="30.17" y="7.32" width="37.68" height="38.05" rx="1.22" ry="1.22" transform="matrix(0.97, 0.25, -0.25, 0.97, 6.7, -11.82)"/><path class="cls-2" d="M58.61,50.44a7.78,7.78,0,0,1-1.95-.25L30.74,43.47A7.78,7.78,0,0,1,25.17,34L31.89,8.08A7.79,7.79,0,0,1,41.36,2.5L67.28,9.22a7.79,7.79,0,0,1,5.57,9.47L66.13,44.61A7.79,7.79,0,0,1,58.61,50.44ZM57.5,47a4.44,4.44,0,0,0,5.4-3.18l6.72-25.92a4.45,4.45,0,0,0-3.18-5.4L40.52,5.74a4.44,4.44,0,0,0-5.4,3.18L28.4,34.83a4.43,4.43,0,0,0,3.18,5.4Z" transform="translate(-1.48 -0.37)"/><rect class="cls-1" x="5.15" y="4.05" width="50.03" height="50.01" rx="1.61" ry="1.61" transform="translate(-3.2 1.53) rotate(-3.5)"/><path class="cls-2" d="M13.57,57.75a10,10,0,0,1-9.91-9.33L1.5,13.07A9.94,9.94,0,0,1,10.8,2.55L46.16,0.39a9.81,9.81,0,0,1,7.18,2.48A9.86,9.86,0,0,1,56.68,9.7L58.84,45a10,10,0,0,1-9.31,10.52L14.18,57.73ZM46.77,4.1H46.39L11,6.27a6.23,6.23,0,0,0-5.82,6.57L7.38,48.2A6.24,6.24,0,0,0,14,54L49.3,51.85a6.23,6.23,0,0,0,5.82-6.57L53,9.93A6.23,6.23,0,0,0,46.77,4.1Z" transform="translate(-1.48 -0.37)"/><circle class="cls-2" cx="21.3" cy="22.27" r="6.36" transform="translate(-2.8 0.97) rotate(-3.5)"/><path class="cls-2" d="M56.35,38.52L40.58,30.07,25.62,45l-9.89-4L5.16,46.23s-7.93,16.91,21,12.63l23.26-1.42s7.39-1.15,7.56-8.55S56.35,38.52,56.35,38.52Z" transform="translate(-1.48 -0.37)"/></svg>