<svg xmlns="http://www.w3.org/2000/svg" viewBox="0 0 77.46 62.06"><defs><style>.cls-1{fill:#f3f5f9;}.cls-2{fill:#b1b1b1;}</style></defs><title>lem_picture_1</title><g id="Layer_2" data-name="Layer 2"><g id="깨부심"><rect class="cls-1" x="30.33" y="7.02" width="42.15" height="42.15" rx="6.6" ry="6.6" transform="matrix(0.97, 0.25, -0.25, 0.97, 8.69, -12)"/><path class="cls-2" d="M61.78,54.15a8.42,8.42,0,0,1-2.11-.27l-28-7.27a8.42,8.42,0,0,1-6-10.25l7.27-28a8.42,8.42,0,0,1,10.25-6l28,7.27a8.42,8.42,0,0,1,6,10.25l-7.27,28A8.42,8.42,0,0,1,61.78,54.15Zm-1.2-3.77a4.8,4.8,0,0,0,5.84-3.44l7.27-28a4.81,4.81,0,0,0-3.44-5.84l-28-7.27a4.8,4.8,0,0,0-5.84,3.44l-7.27,28a4.8,4.8,0,0,0,3.44,5.84Z"/><rect class="cls-1" x="3.15" y="3.15" width="55.76" height="55.76" rx="8.73" ry="8.73" transform="translate(-1.84 1.95) rotate(-3.5)"/><path class="cls-2" d="M13.07,62.06A10.76,10.76,0,0,1,2.36,52L0,13.74A10.75,10.75,0,0,1,10.09,2.36L48.32,0a10.61,10.61,0,0,1,7.77,2.69,10.67,10.67,0,0,1,3.61,7.39L62,48.32A10.77,10.77,0,0,1,52,59.7L13.74,62ZM49,4h-.41L10.33,6.38A6.74,6.74,0,0,0,4,13.49L6.38,51.73A6.75,6.75,0,0,0,13.49,58l38.23-2.34A6.73,6.73,0,0,0,58,48.57L55.67,10.34A6.74,6.74,0,0,0,49,4Z"/><circle class="cls-2" cx="21.44" cy="23.69" r="6.87" transform="translate(-1.41 1.35) rotate(-3.5)"/><path class="cls-2" d="M59.34,37.26l-17-9.13L26.11,44.25l-10.7-4.31L4,45.6S-4.59,63.89,26.69,59.26l25.15-1.54s8-1.25,8.18-9.24S59.34,37.26,59.34,37.26Z"/></g></g></svg>