<svg id="Layer_1" data-name="Layer 1" xmlns="http://www.w3.org/2000/svg" viewBox="0 0 139.98 38"><defs><style>.cls-1{fill:#fff;}</style></defs><title>logo</title><path class="cls-1" d="M-404,1326.55a0.28,0.28,0,0,1-.32.34h-0.87a0.33,0.33,0,0,1-.32-0.16l-6.09-10.81a14.25,14.25,0,0,1-.78-1.5v12.12a0.29,0.29,0,0,1-.32.34h-0.87a0.3,0.3,0,0,1-.35-0.34v-14.95a0.3,0.3,0,0,1,.35-0.34h0.87a0.26,0.26,0,0,1,.28.14l6.23,11c0.18,0.32.69,1.38,0.69,1.38v-12.14a0.29,0.29,0,0,1,.32-0.34h0.87a0.28,0.28,0,0,1,.32.34v14.95Z" transform="translate(469 -1301)"/><path class="cls-1" d="M-400.29,1318.27c0-1.72,1-2.92,4.14-2.92s4.14,1.2,4.14,2.92v8.28a0.29,0.29,0,0,1-.32.34h-0.83a0.31,0.31,0,0,1-.35-0.34l0-.83a6.06,6.06,0,0,1-3.79,1.36c-2.14,0-3.17-1.22-3.17-2.71v-1.15a2.66,2.66,0,0,1,3-2.71h4v-2.07c0-1-.55-1.77-2.6-1.77s-2.62.69-2.62,1.72v0.28a0.3,0.3,0,0,1-.35.37H-400a0.3,0.3,0,0,1-.32-0.37v-0.39Zm6.71,6.19v-2.69h-3.66a1.51,1.51,0,0,0-1.75,1.66v0.74c0,1,.62,1.59,2,1.59A5.58,5.58,0,0,0-393.57,1324.46Z" transform="translate(469 -1301)"/><path class="cls-1" d="M-387,1315.88l0,0.87a6,6,0,0,1,3.93-1.4c2.14,0,3.17,1.2,3.17,2.83v8.37a0.29,0.29,0,0,1-.32.34h-0.92a0.31,0.31,0,0,1-.35-0.34v-8c0-1-.55-1.75-2-1.75a5.69,5.69,0,0,0-3.47,1.29v8.49a0.29,0.29,0,0,1-.32.34h-0.92a0.3,0.3,0,0,1-.35-0.34v-10.67a0.3,0.3,0,0,1,.35-0.34h0.83A0.3,0.3,0,0,1-387,1315.88Z" transform="translate(469 -1301)"/><path class="cls-1" d="M-376.51,1318.27c0-1.72,1-2.92,4.14-2.92s4.14,1.2,4.14,2.92v8.28a0.29,0.29,0,0,1-.32.34h-0.83a0.31,0.31,0,0,1-.35-0.34l0-.83a6.06,6.06,0,0,1-3.79,1.36c-2.14,0-3.17-1.22-3.17-2.71v-1.15a2.66,2.66,0,0,1,3-2.71h4v-2.07c0-1-.55-1.77-2.6-1.77s-2.62.69-2.62,1.72v0.28a0.3,0.3,0,0,1-.35.37h-0.83a0.3,0.3,0,0,1-.32-0.37v-0.39Zm6.71,6.19v-2.69h-3.66a1.51,1.51,0,0,0-1.75,1.66v0.74c0,1,.62,1.59,2,1.59A5.58,5.58,0,0,0-369.79,1324.46Z" transform="translate(469 -1301)"/><path class="cls-1" d="M-363.14,1326.55a0.29,0.29,0,0,1-.32.34h-0.92a0.3,0.3,0,0,1-.35-0.34v-15.38a0.3,0.3,0,0,1,.35-0.35h0.92a0.29,0.29,0,0,1,.32.35v15.38Z" transform="translate(469 -1301)"/><path class="cls-1" d="M-359.74,1318.32c0-1.77,1.17-3,4.32-3s4.35,1.2,4.35,3v5.79c0,1.77-1.2,3-4.35,3s-4.32-1.2-4.32-3v-5.79Zm7.08,0.11c0-1.08-.71-1.77-2.76-1.77s-2.74.69-2.74,1.77V1324c0,1.08.71,1.77,2.74,1.77s2.76-.69,2.76-1.77v-5.57Z" transform="translate(469 -1301)"/><path class="cls-1" d="M-347.94,1324.14v-5.84c0-1.75,1-2.94,3.2-2.94a6.13,6.13,0,0,1,3.91,1.4l0-.87a0.3,0.3,0,0,1,.34-0.34h0.83a0.3,0.3,0,0,1,.35.34v12.79c0,1.77-1.15,3-4.3,3h-3.13a0.29,0.29,0,0,1-.34-0.32v-0.69a0.29,0.29,0,0,1,.34-0.32h3.13c2,0,2.71-.71,2.71-1.77v-2.78a6.4,6.4,0,0,1-3.89,1.33C-347,1327.08-347.94,1325.89-347.94,1324.14Zm1.59-.23c0,0.94.55,1.72,2,1.72a5.84,5.84,0,0,0,3.47-1.29v-6.23a5.68,5.68,0,0,0-3.47-1.31c-1.47,0-2,.78-2,1.72v5.38Z" transform="translate(469 -1301)"/><path class="cls-1" d="M-330.27,1302v36h-91.6v-36h91.6m1.25-1h-94.1v38H-329v-38h0Z" transform="translate(469 -1301)"/><rect class="cls-1" x="27.58" y="21.91" width="0.42" height="0.09"/><path class="cls-1" d="M-469,1301v38h49v-38h-49Zm21,28h-6v-6h6v6Zm13-12h-6v6h6v6h-6v-6h-7v-6h-6v-6h6v6h7v-6h6v6Z" transform="translate(469 -1301)"/></svg>